<?xml version="1.0" encoding="UTF-8"?>
<!DOCTYPE svg PUBLIC "-//W3C//DTD SVG 1.1//EN" "http://www.w3.org/Graphics/SVG/1.1/DTD/svg11.dtd">
<svg version="1.1" xmlns="http://www.w3.org/2000/svg" xmlns:xlink="http://www.w3.org/1999/xlink" x="0" y="0" width="230" height="610" viewBox="0, 0, 230, 610">
  <g id="Ebene_1">
    <path d="M30.225,13.278 Q30.825,13.278 30.825,14.278 Q30.825,15.278 30.225,15.278 L26.025,15.278 L26.025,19.478 Q26.025,20.078 25.025,20.078 Q24.025,20.078 24.025,19.478 L24.025,15.278 L19.825,15.278 Q19.225,15.278 19.225,14.278 Q19.225,13.278 19.825,13.278 L24.025,13.278 L24.025,9.078 Q24.025,8.478 25.025,8.478 Q26.025,8.478 26.025,9.078 L26.025,13.278 z" fill="#000000" fill-opacity="0.847"/>
    <path d="M30.225,45.478 Q30.825,45.478 30.825,46.478 Q30.825,47.478 30.225,47.478 L19.825,47.478 Q19.225,47.478 19.225,46.478 Q19.225,45.478 19.825,45.478 z" fill="#000000" fill-opacity="0.847"/>
    <path d="M29.365,81.798 Q29.725,82.158 29.725,82.658 Q29.725,83.158 29.365,83.498 Q29.005,83.838 28.505,83.838 Q28.005,83.838 27.645,83.518 L25.005,80.478 L22.365,83.518 Q22.005,83.838 21.505,83.838 Q21.005,83.838 20.645,83.518 Q20.325,83.158 20.325,82.658 Q20.325,82.158 20.645,81.798 L23.405,78.678 L20.645,75.518 Q20.325,75.158 20.325,74.658 Q20.325,74.158 20.645,73.798 Q21.005,73.478 21.505,73.478 Q22.005,73.478 22.365,73.798 L25.005,76.838 L27.645,73.798 Q28.005,73.478 28.505,73.478 Q29.005,73.478 29.365,73.818 Q29.725,74.158 29.725,74.658 Q29.725,75.158 29.365,75.518 L26.605,78.678 z" fill="#000000" fill-opacity="0.847"/>
    <path d="M34.185,105.778 Q34.625,106.218 34.625,106.878 Q34.625,107.538 34.185,107.978 L22.785,119.378 Q22.345,119.798 21.585,120.138 Q20.825,120.478 20.125,120.478 L15.425,120.478 L15.425,115.798 Q15.425,115.098 15.765,114.318 Q16.105,113.538 16.525,113.118 L27.925,101.718 Q28.385,101.278 29.025,101.278 Q29.665,101.278 30.125,101.718 z M18.305,114.298 L19.605,115.578 L28.225,106.918 L26.945,105.658 z M20.125,118.398 Q20.405,118.398 20.785,118.238 L20.245,117.718 Q19.905,117.398 19.245,116.718 Q18.585,116.038 18.125,115.598 L17.685,115.158 Q17.505,115.578 17.505,115.798 L17.505,117.358 L18.545,118.398 z M21.605,117.598 L30.245,108.958 L28.985,107.678 L20.325,116.298 z M30.985,108.218 L32.325,106.878 L29.025,103.578 L27.685,104.898 z" fill="#000000" fill-opacity="0.847"/>
    <path d="M25.025,135.078 Q27.105,135.078 28.565,136.538 Q30.025,137.998 30.025,140.098 Q30.025,142.198 28.785,144.938 Q27.545,147.678 26.265,149.398 L25.025,151.078 Q24.825,150.838 24.485,150.378 Q24.145,149.918 23.285,148.598 Q22.425,147.278 21.765,145.998 Q21.105,144.718 20.565,143.058 Q20.025,141.398 20.025,140.078 Q20.025,137.998 21.485,136.538 Q22.945,135.078 25.025,135.078 z M25.025,142.838 Q26.145,142.838 26.945,142.038 Q27.745,141.238 27.745,140.118 Q27.745,138.998 26.945,138.218 Q26.145,137.438 25.025,137.438 Q23.905,137.438 23.125,138.218 Q22.345,138.998 22.345,140.118 Q22.345,141.238 23.125,142.038 Q23.905,142.838 25.025,142.838 z" fill="#000000" fill-opacity="0.847"/>
    <path d="M30.505,173.838 L25.825,178.318 Q25.465,178.678 25.025,178.678 Q24.585,178.678 24.225,178.318 L19.545,173.838 Q19.225,173.518 19.225,173.018 Q19.225,172.518 19.545,172.198 Q20.305,171.438 21.105,172.198 L25.025,175.958 L28.945,172.198 Q29.745,171.438 30.505,172.198 Q30.825,172.518 30.825,173.018 Q30.825,173.518 30.505,173.838 z" fill="#000000" fill-opacity="0.847"/>
    <path d="M26.455,201.958 Q26.735,201.638 27.235,201.638 Q27.735,201.638 28.055,201.958 Q28.815,202.678 28.055,203.558 L24.335,207.478 L28.055,211.358 Q28.815,212.238 28.055,212.958 Q27.735,213.278 27.255,213.278 Q26.775,213.278 26.455,212.958 L21.935,208.238 Q21.615,207.918 21.615,207.458 Q21.615,206.998 21.935,206.678 Q26.055,202.398 26.455,201.958 z" fill="#000000" fill-opacity="0.847"/>
    <path d="M23.585,234.158 L28.105,238.878 Q28.425,239.198 28.425,239.658 Q28.425,240.118 28.105,240.438 L23.585,245.158 Q23.265,245.478 22.785,245.478 Q22.305,245.478 21.985,245.158 Q21.265,244.438 21.985,243.558 L25.705,239.678 L21.985,235.758 Q21.265,234.878 21.985,234.158 Q22.305,233.838 22.805,233.838 Q23.305,233.838 23.585,234.158 z" fill="#000000" fill-opacity="0.847"/>
    <path d="M30.505,273.278 Q30.825,273.598 30.825,274.098 Q30.825,274.598 30.505,274.918 Q29.745,275.678 28.945,274.918 L25.025,271.158 L21.105,274.918 Q20.305,275.678 19.545,274.918 Q19.225,274.598 19.225,274.098 Q19.225,273.598 19.545,273.278 L24.225,268.798 Q24.545,268.478 25.025,268.478 Q25.505,268.478 25.825,268.798 z" fill="#000000" fill-opacity="0.847"/>
    <path d="M33.315,305.858 Q33.315,305.918 33.315,305.938 Q32.595,308.938 30.315,310.798 Q28.035,312.658 24.975,312.658 Q23.355,312.658 21.835,312.038 Q20.315,311.418 19.115,310.278 L17.675,311.718 Q17.455,311.938 17.175,311.938 Q16.895,311.938 16.675,311.718 Q16.455,311.498 16.455,311.218 L16.455,306.218 Q16.455,305.938 16.675,305.718 Q16.895,305.498 17.175,305.498 L22.175,305.498 Q22.455,305.498 22.675,305.718 Q22.895,305.938 22.875,306.218 Q22.855,306.498 22.675,306.718 L21.135,308.258 Q21.935,308.978 22.935,309.398 Q23.935,309.818 25.035,309.798 Q26.515,309.798 27.815,309.058 Q29.115,308.318 29.895,307.078 Q30.015,306.878 30.495,305.758 Q30.575,305.498 30.815,305.498 L32.955,305.498 Q33.115,305.498 33.215,305.618 Q33.315,305.738 33.315,305.858 z M33.595,296.938 L33.595,301.938 Q33.595,302.218 33.395,302.438 Q33.195,302.658 32.875,302.658 L27.875,302.658 Q27.595,302.658 27.375,302.438 Q27.155,302.218 27.175,301.938 Q27.195,301.658 27.375,301.438 L28.915,299.898 Q27.275,298.358 25.035,298.358 Q23.535,298.358 22.235,299.098 Q20.935,299.838 20.155,301.078 Q20.035,301.278 19.575,302.398 Q19.475,302.658 19.235,302.658 L17.015,302.658 Q16.875,302.658 16.755,302.538 Q16.635,302.418 16.655,302.298 L16.655,302.218 Q17.375,299.218 19.675,297.358 Q21.975,295.498 25.035,295.498 Q26.655,295.498 28.195,296.118 Q29.735,296.738 30.935,297.878 L32.375,296.438 Q32.595,296.218 32.875,296.218 Q33.155,296.218 33.395,296.438 Q33.635,296.658 33.595,296.938 z" fill="#000000" fill-opacity="0.847"/>
    <path d="M25.025,326.678 Q29.025,326.678 31.825,329.498 Q34.625,332.318 34.625,336.298 Q34.625,340.278 31.825,343.078 Q29.025,345.878 25.045,345.878 Q21.065,345.878 18.245,343.078 Q15.425,340.278 15.425,336.298 Q15.425,332.318 18.245,329.498 Q21.065,326.678 25.025,326.678 z M33.225,336.278 Q33.225,333.638 31.665,331.498 Q30.105,329.358 27.625,328.518 Q27.265,328.998 27.305,329.158 Q27.385,329.918 27.665,330.178 Q27.945,330.438 28.265,330.318 L28.905,330.078 L29.305,330.038 Q29.745,330.518 29.305,330.978 Q28.865,331.438 28.405,332.098 Q27.945,332.758 28.385,333.638 Q29.065,334.918 30.305,334.918 Q30.865,334.958 31.165,335.638 Q31.465,336.318 31.505,336.958 Q31.705,338.558 31.225,339.758 Q30.785,340.638 31.505,341.278 Q33.225,339.038 33.225,336.278 z M23.905,328.198 Q21.665,328.478 19.925,329.878 Q18.185,331.278 17.385,333.358 Q17.505,333.358 17.825,333.398 L18.385,333.458 Q18.625,333.478 18.905,333.538 Q19.185,333.598 19.385,333.698 Q19.585,333.798 19.625,333.958 Q19.705,334.198 19.345,334.858 Q18.985,335.518 18.985,336.098 Q18.985,336.678 19.745,337.198 Q20.505,337.718 20.505,338.118 Q20.505,338.678 20.665,339.478 Q20.825,340.278 20.825,340.358 Q20.825,340.598 21.545,341.438 Q22.265,342.278 22.585,342.278 Q22.785,342.278 22.805,341.838 Q22.825,341.398 22.765,340.758 Q22.705,340.118 22.705,339.958 Q22.705,339.318 22.965,338.478 Q23.225,337.638 24.165,337.078 Q25.105,336.518 25.265,336.158 Q25.585,335.478 25.445,334.938 Q25.305,334.398 25.105,334.078 Q24.905,333.758 24.425,333.518 Q23.945,333.278 23.605,333.178 Q23.265,333.078 22.865,332.998 Q22.465,332.918 22.425,332.918 Q22.105,332.798 21.585,332.778 Q21.065,332.758 20.865,332.838 Q20.665,332.918 20.325,332.618 Q19.985,332.318 19.985,332.038 Q19.985,331.838 20.285,331.498 Q20.585,331.158 20.985,330.758 Q21.385,330.358 21.545,330.158 Q21.705,329.878 21.885,329.738 Q22.065,329.598 22.325,329.418 Q22.585,329.238 22.865,328.998 Q22.945,328.918 23.365,328.658 Q23.785,328.398 23.905,328.198 z M22.465,344.078 Q23.785,344.478 25.025,344.478 Q27.585,344.478 29.545,343.118 Q29.025,342.238 27.185,342.438 Q26.705,342.478 25.885,342.778 L24.945,343.118 Q23.465,343.438 23.425,343.438 Q23.185,343.478 22.905,343.718 Q22.625,343.958 22.465,344.078 z" fill="#000000" fill-opacity="0.847"/>
    <path d="M15.025,376.838 L15.025,360.118 L35.025,360.118 L35.025,376.838 z M16.545,375.278 L33.505,375.278 L33.505,361.678 L16.545,361.678 z M18.345,373.678 L18.345,372.498 L21.345,368.598 L23.385,370.318 L27.245,364.498 L31.705,369.058 L31.705,373.678 z M18.345,365.358 Q18.345,364.618 18.825,364.118 Q19.305,363.618 20.065,363.638 Q20.725,363.638 21.225,364.118 Q21.725,364.598 21.705,365.358 Q21.705,366.018 21.225,366.498 Q20.745,366.978 20.065,366.998 Q19.325,366.998 18.825,366.498 Q18.325,365.998 18.345,365.358 z" fill="#000000" fill-opacity="0.847"/>
    <path d="M23.335,407.678 Q22.655,407.678 22.215,407.118 L18.615,402.398 Q18.295,401.918 18.375,401.358 Q18.455,400.798 18.895,400.438 Q19.335,400.078 19.915,400.158 Q20.495,400.238 20.855,400.718 L23.215,403.798 L29.135,394.318 Q29.455,393.838 29.995,393.718 Q30.535,393.598 31.055,393.878 Q31.535,394.198 31.655,394.738 Q31.775,395.278 31.495,395.798 L24.495,406.998 Q24.095,407.638 23.375,407.638 z" fill="#000000" fill-opacity="0.847"/>
    <path d="M18.025,430.678 Q18.945,430.678 19.585,431.318 Q20.225,431.958 20.225,432.858 Q20.225,433.758 19.585,434.418 Q18.945,435.078 18.025,435.078 Q17.105,435.078 16.465,434.418 Q15.825,433.758 15.825,432.858 Q15.825,431.958 16.465,431.318 Q17.105,430.678 18.025,430.678 z M25.025,430.678 Q25.945,430.678 26.585,431.318 Q27.225,431.958 27.225,432.858 Q27.225,433.758 26.565,434.418 Q25.905,435.078 25.025,435.078 Q24.145,435.078 23.485,434.418 Q22.825,433.758 22.825,432.858 Q22.825,431.958 23.465,431.318 Q24.105,430.678 25.025,430.678 z M32.025,430.678 Q32.945,430.678 33.585,431.318 Q34.225,431.958 34.225,432.858 Q34.225,433.758 33.585,434.418 Q32.945,435.078 32.025,435.078 Q31.105,435.078 30.465,434.418 Q29.825,433.758 29.825,432.858 Q29.825,431.958 30.465,431.318 Q31.105,430.678 32.025,430.678 z" fill="#000000" fill-opacity="0.847"/>
    <path d="M25.025,455.078 L29.625,462.358 L20.425,462.358 z M25.025,475.078 L20.425,467.758 L29.625,467.758 z" fill="#000000" fill-opacity="0.847"/>
    <path d="M30.425,492.538 L25.045,501.998 L19.625,492.538 z" fill="#000000" fill-opacity="0.847"/>
    <path d="M19.625,534.198 L25.005,524.738 L30.425,534.198 z" fill="#000000" fill-opacity="0.847"/>
    <path d="M32.575,567.118 Q33.175,567.798 32.695,568.358 L31.775,569.278 Q31.055,569.918 30.415,569.278 L26.615,565.478 Q25.135,566.318 23.495,566.318 Q20.935,566.318 19.035,564.418 Q17.135,562.518 17.135,559.958 Q17.135,557.398 18.935,555.578 Q20.735,553.758 23.295,553.758 Q25.855,553.758 27.775,555.658 Q29.695,557.558 29.695,560.118 Q29.695,561.878 28.775,563.358 z M19.015,559.958 Q19.015,561.718 20.375,563.078 Q21.735,564.438 23.495,564.438 Q25.255,564.438 26.515,563.178 Q27.775,561.918 27.775,560.138 Q27.775,558.358 26.415,557.018 Q25.055,555.678 23.295,555.678 Q21.535,555.678 20.275,556.938 Q19.015,558.198 19.015,559.958 z" fill="#000000" fill-opacity="0.847"/>
    <path d="M30.745,591.038 L30.745,594.598 Q30.745,595.938 29.805,596.878 Q28.865,597.818 27.525,597.818 L18.245,597.818 Q16.905,597.818 15.965,596.878 Q15.025,595.938 15.025,594.598 L15.025,585.318 Q15.025,583.998 15.965,583.058 Q16.905,582.118 18.245,582.098 L26.105,582.098 Q26.245,582.098 26.345,582.198 Q26.445,582.298 26.445,582.458 L26.445,583.178 Q26.445,583.338 26.345,583.438 Q26.245,583.538 26.105,583.538 L18.245,583.538 Q17.505,583.538 16.985,584.058 Q16.465,584.578 16.445,585.318 L16.445,594.598 Q16.445,595.338 16.985,595.858 Q17.525,596.378 18.245,596.398 L27.525,596.398 Q28.265,596.398 28.785,595.858 Q29.305,595.318 29.305,594.598 L29.305,591.038 Q29.305,590.878 29.405,590.778 Q29.505,590.678 29.665,590.678 L30.385,590.678 Q30.545,590.678 30.645,590.778 Q30.745,590.878 30.745,591.038 z M35.025,581.398 L35.025,587.098 Q35.025,587.398 34.805,587.598 Q34.585,587.798 34.305,587.818 Q34.025,587.838 33.805,587.598 L31.845,585.638 L24.565,592.918 Q24.465,593.038 24.305,593.038 Q24.145,593.038 24.065,592.918 L22.785,591.638 Q22.665,591.538 22.665,591.398 Q22.665,591.258 22.785,591.138 L30.065,583.858 L28.105,581.898 Q27.885,581.678 27.885,581.398 Q27.885,581.118 28.105,580.898 Q28.325,580.678 28.605,580.678 L34.305,580.678 Q34.605,580.678 34.805,580.898 Q35.005,581.118 35.025,581.398 z" fill="#000000" fill-opacity="0.847"/>
    <text transform="matrix(1, 0, 0, 1, 139.5, 307)">
      <tspan x="-73.525" y="-288.222" font-family="LucidaGrande" font-size="20" fill="#000000" fill-opacity="0.847">plus</tspan>
      <tspan x="-73.525" y="-256.022" font-family="LucidaGrande" font-size="20" fill="#000000" fill-opacity="0.847">minus</tspan>
      <tspan x="-73.525" y="-223.822" font-family="LucidaGrande" font-size="20" fill="#000000" fill-opacity="0.847">cancel</tspan>
      <tspan x="-73.525" y="-191.622" font-family="LucidaGrande" font-size="20" fill="#000000" fill-opacity="0.847">pencil</tspan>
      <tspan x="-73.525" y="-159.422" font-family="LucidaGrande" font-size="20" fill="#000000" fill-opacity="0.847">location</tspan>
      <tspan x="-73.525" y="-127.222" font-family="LucidaGrande" font-size="20" fill="#000000" fill-opacity="0.847">down</tspan>
      <tspan x="-73.525" y="-95.022" font-family="LucidaGrande" font-size="20" fill="#000000" fill-opacity="0.847">left</tspan>
      <tspan x="-73.525" y="-62.822" font-family="LucidaGrande" font-size="20" fill="#000000" fill-opacity="0.847">right</tspan>
      <tspan x="-73.525" y="-30.622" font-family="LucidaGrande" font-size="20" fill="#000000" fill-opacity="0.847">up</tspan>
      <tspan x="-73.525" y="1.578" font-family="LucidaGrande" font-size="20" fill="#000000" fill-opacity="0.847">sync</tspan>
      <tspan x="-73.525" y="33.778" font-family="LucidaGrande" font-size="20" fill="#000000" fill-opacity="0.847">globe</tspan>
      <tspan x="-73.525" y="65.978" font-family="LucidaGrande" font-size="20" fill="#000000" fill-opacity="0.847">picture</tspan>
      <tspan x="-73.525" y="98.178" font-family="LucidaGrande" font-size="20" fill="#000000" fill-opacity="0.847">check</tspan>
      <tspan x="-73.525" y="130.378" font-family="LucidaGrande" font-size="20" fill="#000000" fill-opacity="0.847">dot-3</tspan>
      <tspan x="-73.525" y="162.578" font-family="LucidaGrande" font-size="20" fill="#000000" fill-opacity="0.847">arrow-combo</tspan>
      <tspan x="-73.525" y="194.778" font-family="LucidaGrande" font-size="20" fill="#000000" fill-opacity="0.847">arrow</tspan>
      <tspan x="-18.418" y="194.778" font-family="LucidaGrande" font-size="20" fill="#000000" fill-opacity="0.847">-down</tspan>
      <tspan x="-73.525" y="226.978" font-family="LucidaGrande" font-size="20" fill="#000000" fill-opacity="0.847">arrow</tspan>
      <tspan x="-18.418" y="226.978" font-family="LucidaGrande" font-size="20" fill="#000000" fill-opacity="0.847">-up</tspan>
      <tspan x="-73.525" y="259.178" font-family="LucidaGrande" font-size="20" fill="#000000" fill-opacity="0.847">search</tspan>
      <tspan x="-73.525" y="291.378" font-family="LucidaGrande" font-size="20" fill="#000000" fill-opacity="0.847">link-ext</tspan>
    </text>
  </g>
</svg>
